<svg width="40" height="40" viewBox="0 0 40 40" fill="none" xmlns="http://www.w3.org/2000/svg">
<path d="M26.3912 19.6576C26.3256 18.3983 25.8876 17.1869 25.1328 16.1768C24.9028 16.4245 24.657 16.657 24.3968 16.8728C23.5975 17.5367 22.7044 18.0786 21.7464 18.4808C21.88 18.7608 22.0024 19.032 22.1104 19.288V19.2904C22.1409 19.3619 22.1702 19.4339 22.1984 19.5064C23.4096 19.3704 24.6864 19.42 25.924 19.5872C26.0888 19.6096 26.244 19.6336 26.3912 19.6576ZM18.8832 13.6976C19.6628 14.7961 20.3818 15.9365 21.0368 17.1136C22.0152 16.728 22.824 16.2416 23.4752 15.7C23.7012 15.5137 23.914 15.3119 24.112 15.096C22.9608 14.1278 21.5042 13.5979 20 13.6C19.6256 13.5997 19.2519 13.6321 18.8832 13.6968V13.6976ZM13.8024 18.3976C14.3474 18.3838 14.8917 18.351 15.4344 18.2992C16.7461 18.1819 18.0466 17.962 19.324 17.6416C18.6564 16.4818 17.9356 15.3534 17.164 14.26C16.3398 14.6683 15.613 15.2491 15.033 15.963C14.453 16.6769 14.0333 17.5072 13.8024 18.3976ZM15.0264 24.028C15.3368 23.5744 15.7448 23.064 16.2864 22.5088C17.4496 21.3168 18.8224 20.3888 20.4112 19.8768L20.4608 19.8624C20.3288 19.5712 20.2048 19.3112 20.08 19.0664C18.6112 19.4944 17.064 19.7616 15.5224 19.9C14.7704 19.968 14.096 19.9976 13.6 20.0024C13.5986 21.4685 14.1018 22.8902 15.0264 24.028ZM22.404 25.932C22.0955 24.3762 21.6588 22.8486 21.0984 21.3648C19.4968 21.9464 18.2208 22.7968 17.2344 23.8112C16.8363 24.2131 16.4831 24.657 16.1808 25.1352C17.2838 25.9582 18.6237 26.402 20 26.4C20.8239 26.4012 21.6403 26.2428 22.404 25.9336V25.932ZM23.9024 25.072C25.1514 24.1118 26.0023 22.7246 26.292 21.176C26.02 21.108 25.6752 21.04 25.296 20.9872C24.4529 20.8658 23.5974 20.8569 22.752 20.9608C23.228 22.3039 23.6124 23.6769 23.9024 25.072ZM20 28C15.5816 28 12 24.4184 12 20C12 15.5816 15.5816 12 20 12C24.4184 12 28 15.5816 28 20C28 24.4184 24.4184 28 20 28Z" fill="black"/>
<circle cx="20" cy="20" r="19.5" stroke="#E8E7EA"/>
</svg>
