<svg width="40" height="40" viewBox="0 0 40 40" fill="none" xmlns="http://www.w3.org/2000/svg">
<circle cx="20" cy="20" r="19.5" stroke="#E8E7EA"/>
<path fill-rule="evenodd" clip-rule="evenodd" d="M20.5 11C15.2513 11 11 15.2512 11 20.5C11 24.7037 13.7194 28.2544 17.4956 29.5131C17.9706 29.5962 18.1487 29.3112 18.1487 29.0619C18.1487 28.8362 18.1369 28.0881 18.1369 27.2925C15.75 27.7319 15.1325 26.7106 14.9425 26.1762C14.8356 25.9031 14.3725 25.06 13.9688 24.8344C13.6363 24.6562 13.1612 24.2169 13.9569 24.205C14.705 24.1931 15.2394 24.8937 15.4175 25.1787C16.2725 26.6156 17.6381 26.2119 18.1844 25.9625C18.2675 25.345 18.5169 24.9294 18.79 24.6919C16.6763 24.4544 14.4675 23.635 14.4675 20.0012C14.4675 18.9681 14.8356 18.1131 15.4413 17.4481C15.3463 17.2106 15.0138 16.2369 15.5363 14.9306C15.5363 14.9306 16.3319 14.6812 18.1487 15.9044C18.9087 15.6906 19.7163 15.5837 20.5238 15.5837C21.3313 15.5837 22.1388 15.6906 22.8988 15.9044C24.7156 14.6694 25.5113 14.9306 25.5113 14.9306C26.0338 16.2369 25.7013 17.2106 25.6063 17.4481C26.2119 18.1131 26.58 18.9562 26.58 20.0012C26.58 23.6469 24.3594 24.4544 22.2456 24.6919C22.59 24.9887 22.8869 25.5587 22.8869 26.4494C22.8869 27.72 22.875 28.7412 22.875 29.0619C22.875 29.3112 23.0531 29.6081 23.5281 29.5131C25.414 28.8764 27.0528 27.6643 28.2137 26.0475C29.3747 24.4307 29.9994 22.4905 30 20.5C30 15.2512 25.7488 11 20.5 11Z" fill="black"/>
</svg>
