<svg width="40" height="40" viewBox="0 0 40 40" fill="none" xmlns="http://www.w3.org/2000/svg">
<path d="M16.64 12H23.36C25.92 12 28 14.08 28 16.64V23.36C28 24.5906 27.5111 25.7708 26.641 26.641C25.7708 27.5111 24.5906 28 23.36 28H16.64C14.08 28 12 25.92 12 23.36V16.64C12 15.4094 12.4889 14.2292 13.359 13.359C14.2292 12.4889 15.4094 12 16.64 12ZM16.48 13.6C15.7162 13.6 14.9836 13.9034 14.4435 14.4435C13.9034 14.9836 13.6 15.7162 13.6 16.48V23.52C13.6 25.112 14.888 26.4 16.48 26.4H23.52C24.2838 26.4 25.0164 26.0966 25.5565 25.5565C26.0966 25.0164 26.4 24.2838 26.4 23.52V16.48C26.4 14.888 25.112 13.6 23.52 13.6H16.48ZM24.2 14.8C24.4652 14.8 24.7196 14.9054 24.9071 15.0929C25.0946 15.2804 25.2 15.5348 25.2 15.8C25.2 16.0652 25.0946 16.3196 24.9071 16.5071C24.7196 16.6946 24.4652 16.8 24.2 16.8C23.9348 16.8 23.6804 16.6946 23.4929 16.5071C23.3054 16.3196 23.2 16.0652 23.2 15.8C23.2 15.5348 23.3054 15.2804 23.4929 15.0929C23.6804 14.9054 23.9348 14.8 24.2 14.8ZM20 16C21.0609 16 22.0783 16.4214 22.8284 17.1716C23.5786 17.9217 24 18.9391 24 20C24 21.0609 23.5786 22.0783 22.8284 22.8284C22.0783 23.5786 21.0609 24 20 24C18.9391 24 17.9217 23.5786 17.1716 22.8284C16.4214 22.0783 16 21.0609 16 20C16 18.9391 16.4214 17.9217 17.1716 17.1716C17.9217 16.4214 18.9391 16 20 16ZM20 17.6C19.3635 17.6 18.753 17.8529 18.3029 18.3029C17.8529 18.753 17.6 19.3635 17.6 20C17.6 20.6365 17.8529 21.247 18.3029 21.6971C18.753 22.1471 19.3635 22.4 20 22.4C20.6365 22.4 21.247 22.1471 21.6971 21.6971C22.1471 21.247 22.4 20.6365 22.4 20C22.4 19.3635 22.1471 18.753 21.6971 18.3029C21.247 17.8529 20.6365 17.6 20 17.6Z" fill="black"/>
<circle cx="20" cy="20" r="19.5" stroke="#E8E7EA"/>
</svg>
