<svg width="40" height="40" viewBox="0 0 40 40" fill="none" xmlns="http://www.w3.org/2000/svg">
<path d="M15.952 14.4C15.9517 14.8243 15.783 15.2312 15.4828 15.5311C15.1826 15.831 14.7755 15.9994 14.3512 15.9992C13.9268 15.999 13.5199 15.8302 13.22 15.53C12.9201 15.2298 12.7517 14.8227 12.752 14.3984C12.7522 13.974 12.9209 13.5672 13.2211 13.2673C13.5214 12.9673 13.9284 12.799 14.3528 12.7992C14.7771 12.7994 15.184 12.9682 15.4839 13.2684C15.7838 13.5686 15.9522 13.9756 15.952 14.4ZM16 17.184H12.8V27.2H16V17.184ZM21.056 17.184H17.872V27.2H21.024V21.944C21.024 19.016 24.84 18.744 24.84 21.944V27.2H28V20.856C28 15.92 22.352 16.104 21.024 18.528L21.056 17.184Z" fill="white"/>
<circle cx="20" cy="20" r="19.5" stroke="#424242"/>
</svg>
