<svg width="100" height="100" viewBox="0 0 100 100" fill="none" xmlns="http://www.w3.org/2000/svg">
<rect width="100" height="100" rx="50" fill="white"/>
<path d="M20 68.3042V32H34.3232C37.0649 32 39.4048 32.4904 41.3429 33.4713C43.2928 34.4404 44.776 35.8171 45.7923 37.6016C46.8205 39.3743 47.3345 41.4601 47.3345 43.8591C47.3345 46.27 46.8145 48.344 45.7746 50.0812C44.7346 51.8066 43.2279 53.1302 41.2543 54.052C39.2925 54.9738 36.9172 55.4347 34.1282 55.4347H24.538V49.2658H32.8873C34.3527 49.2658 35.5699 49.0649 36.539 48.6631C37.508 48.2613 38.2289 47.6586 38.7016 46.855C39.1862 46.0513 39.4284 45.0527 39.4284 43.8591C39.4284 42.6537 39.1862 41.6374 38.7016 40.8102C38.2289 39.9829 37.5021 39.3566 36.5213 38.9311C35.5522 38.4939 34.3291 38.2752 32.8518 38.2752H27.6756V68.3042H20ZM39.6057 51.783L48.6286 68.3042H40.1552L31.3273 51.783H39.6057Z" fill="black"/>
<path d="M52.7589 68.3042V32H60.4345V48.0072H60.9132L73.9777 32H83.1779L69.7056 48.2554L83.3374 68.3042H74.155L64.2103 53.3784L60.4345 57.9873V68.3042H52.7589Z" fill="black"/>
</svg>
