<svg width="505" height="368" viewBox="0 0 505 368" fill="none" xmlns="http://www.w3.org/2000/svg">
<g clip-path="url(#clip0_1825_68)">
<path d="M294.162 64.8368C303.626 64.8368 311.299 57.1646 311.299 47.7004C311.299 38.2362 303.626 30.564 294.162 30.564C284.697 30.564 277.024 38.2362 277.024 47.7004C277.024 57.1646 284.697 64.8368 294.162 64.8368Z" fill="#F2F2F2"/>
<path d="M427.1 319.161C452.572 299.76 464.738 267.159 457.122 236.06C456.933 235.287 456.733 234.516 456.523 233.747C451.473 215.287 438.98 197.742 420.773 191.843C405.485 186.89 388.798 190.699 372.848 188.73C341.539 184.863 317.266 159.532 300.187 133.009C283.107 106.487 269.981 76.7986 247.287 54.8872C209.878 18.7699 148.855 10.9938 102.474 34.5035C56.0927 58.0132 26.5483 110.171 27.8083 162.154C29.0683 214.136 59.9292 263.835 104.747 290.203C121.211 299.889 140.254 306.752 159.205 304.35C175.648 302.267 190.589 293.432 206.955 290.809C232.687 286.685 258.254 298.318 280.51 311.875C302.766 325.432 324.263 341.5 349.554 347.785C374.111 353.888 404.535 336.347 427.1 319.161Z" fill="#F2F2F2"/>
<path d="M390.502 35.595C389.944 35.2227 389.379 34.8697 388.821 34.5103C372.679 24.1875 355.379 15.8014 337.276 9.52522L333.078 67.428H306.468V1.07277C304.793 0.726197 303.105 0.398882 301.417 0.0908203V67.428H269.794C252.386 67.428 235.69 60.5128 223.38 48.2036C211.071 35.8944 204.155 19.1995 204.155 1.79165V1.7916C202.461 2.15742 200.779 2.54892 199.097 2.96608V67.4281H173.341L169.342 12.2144C150.739 19.3487 133.078 28.7308 116.751 40.1517C116.469 40.3443 116.187 40.5432 115.911 40.7358C114.492 41.7305 113.093 42.7446 111.7 43.7715V264.671H187.609L186.267 246.091L178.886 144.078H327.526L320.145 246.091L318.804 264.671H393.872V37.8284C392.755 37.0711 391.632 36.3266 390.502 35.595ZM199.097 127.231H177.667L173.707 72.4854H199.097V127.231ZM301.417 127.231H265.424V126.146C265.424 125.625 265.321 125.108 265.121 124.627C264.921 124.145 264.629 123.707 264.26 123.339C263.891 122.971 263.453 122.679 262.971 122.48C262.489 122.281 261.972 122.179 261.451 122.18H245.803C245.282 122.179 244.766 122.282 244.285 122.481C243.804 122.68 243.366 122.973 242.998 123.341C242.629 123.709 242.337 124.147 242.138 124.628C241.939 125.109 241.836 125.625 241.837 126.146V127.231H204.155V72.4854H301.417V127.231ZM306.468 127.231V72.4854H332.712L328.752 127.231H306.468Z" fill="#3F3D56"/>
<path d="M0 278.817C5.57569 285.423 11.6064 291.632 18.0481 297.397L486.952 298.039C493.394 292.273 499.424 286.065 505 279.459L0 278.817Z" fill="#3F3D56"/>
<path d="M317.979 219.323V274.328C317.979 275.028 318.258 275.701 318.753 276.196C319.249 276.692 319.921 276.971 320.622 276.971H402.137C402.838 276.971 403.51 276.692 404.006 276.196C404.501 275.701 404.78 275.028 404.781 274.328V219.323C404.779 218.623 404.5 217.952 404.004 217.457C403.509 216.962 402.837 216.683 402.137 216.682H320.622C319.922 216.683 319.25 216.962 318.755 217.457C318.259 217.952 317.98 218.623 317.979 219.323V219.323Z" fill="#3F3D56"/>
<path d="M319.892 220.007V273.649C319.892 274.023 320.041 274.382 320.306 274.647C320.571 274.912 320.93 275.061 321.305 275.061H401.459C401.834 275.061 402.193 274.912 402.457 274.647C402.722 274.382 402.871 274.023 402.872 273.649V220.007C402.872 219.632 402.723 219.272 402.458 219.007C402.193 218.742 401.834 218.592 401.459 218.591H321.305C320.93 218.592 320.57 218.742 320.305 219.007C320.04 219.272 319.892 219.632 319.892 220.007V220.007Z" fill="#4831D4"/>
<path d="M316.275 285.055C316.425 285.242 316.614 285.393 316.83 285.496C317.046 285.6 317.283 285.653 317.523 285.651H404.805C405.044 285.651 405.28 285.598 405.495 285.495C405.711 285.392 405.9 285.242 406.051 285.057C406.201 284.872 406.308 284.655 406.364 284.423C406.421 284.191 406.424 283.95 406.375 283.716L405.021 277.281C404.964 277.018 404.843 276.774 404.669 276.57C404.494 276.366 404.271 276.209 404.02 276.114C403.839 276.043 403.646 276.006 403.451 276.006H318.872C318.677 276.006 318.484 276.043 318.302 276.114C318.051 276.209 317.828 276.366 317.654 276.57C317.479 276.774 317.358 277.018 317.302 277.281L315.947 283.716C315.899 283.949 315.903 284.191 315.96 284.422C316.017 284.654 316.125 284.87 316.275 285.055V285.055Z" fill="#2F2E41"/>
<path d="M400.455 278.778H402.517C402.69 278.778 402.83 278.638 402.83 278.465V277.479C402.83 277.306 402.69 277.165 402.517 277.165H400.455C400.282 277.165 400.142 277.306 400.142 277.479V278.465C400.142 278.638 400.282 278.778 400.455 278.778Z" fill="#3F3D56"/>
<path d="M395.078 278.778H397.14C397.313 278.778 397.453 278.638 397.453 278.465V277.479C397.453 277.306 397.313 277.165 397.14 277.165H395.078C394.905 277.165 394.765 277.306 394.765 277.479V278.465C394.765 278.638 394.905 278.778 395.078 278.778Z" fill="#3F3D56"/>
<path d="M389.701 278.778H391.763C391.936 278.778 392.076 278.638 392.076 278.465V277.479C392.076 277.306 391.936 277.165 391.763 277.165H389.701C389.528 277.165 389.388 277.306 389.388 277.479V278.465C389.388 278.638 389.528 278.778 389.701 278.778Z" fill="#3F3D56"/>
<path d="M384.325 278.778H386.387C386.56 278.778 386.7 278.638 386.7 278.465V277.479C386.7 277.306 386.56 277.165 386.387 277.165H384.325C384.152 277.165 384.012 277.306 384.012 277.479V278.465C384.012 278.638 384.152 278.778 384.325 278.778Z" fill="#3F3D56"/>
<path d="M378.947 278.778H381.009C381.182 278.778 381.322 278.638 381.322 278.465V277.479C381.322 277.306 381.182 277.165 381.009 277.165H378.947C378.774 277.165 378.634 277.306 378.634 277.479V278.465C378.634 278.638 378.774 278.778 378.947 278.778Z" fill="#3F3D56"/>
<path d="M373.571 278.778H375.633C375.806 278.778 375.946 278.638 375.946 278.465V277.479C375.946 277.306 375.806 277.165 375.633 277.165H373.571C373.398 277.165 373.258 277.306 373.258 277.479V278.465C373.258 278.638 373.398 278.778 373.571 278.778Z" fill="#3F3D56"/>
<path d="M368.194 278.778H370.256C370.429 278.778 370.569 278.638 370.569 278.465V277.479C370.569 277.306 370.429 277.165 370.256 277.165H368.194C368.021 277.165 367.881 277.306 367.881 277.479V278.465C367.881 278.638 368.021 278.778 368.194 278.778Z" fill="#3F3D56"/>
<path d="M362.818 278.778H364.88C365.053 278.778 365.193 278.638 365.193 278.465V277.479C365.193 277.306 365.053 277.165 364.88 277.165H362.818C362.645 277.165 362.505 277.306 362.505 277.479V278.465C362.505 278.638 362.645 278.778 362.818 278.778Z" fill="#3F3D56"/>
<path d="M357.442 278.778H359.504C359.677 278.778 359.817 278.638 359.817 278.465V277.479C359.817 277.306 359.677 277.165 359.504 277.165H357.442C357.269 277.165 357.129 277.306 357.129 277.479V278.465C357.129 278.638 357.269 278.778 357.442 278.778Z" fill="#3F3D56"/>
<path d="M352.065 278.778H354.127C354.3 278.778 354.44 278.638 354.44 278.465V277.479C354.44 277.306 354.3 277.165 354.127 277.165H352.065C351.892 277.165 351.752 277.306 351.752 277.479V278.465C351.752 278.638 351.892 278.778 352.065 278.778Z" fill="#3F3D56"/>
<path d="M346.69 278.778H348.751C348.924 278.778 349.064 278.638 349.064 278.465V277.479C349.064 277.306 348.924 277.165 348.751 277.165H346.69C346.516 277.165 346.376 277.306 346.376 277.479V278.465C346.376 278.638 346.516 278.778 346.69 278.778Z" fill="#3F3D56"/>
<path d="M341.313 278.778H343.374C343.547 278.778 343.688 278.638 343.688 278.465V277.479C343.688 277.306 343.547 277.165 343.374 277.165H341.313C341.139 277.165 340.999 277.306 340.999 277.479V278.465C340.999 278.638 341.139 278.778 341.313 278.778Z" fill="#3F3D56"/>
<path d="M335.936 278.778H337.997C338.17 278.778 338.311 278.638 338.311 278.465V277.479C338.311 277.306 338.17 277.165 337.997 277.165H335.936C335.763 277.165 335.622 277.306 335.622 277.479V278.465C335.622 278.638 335.763 278.778 335.936 278.778Z" fill="#3F3D56"/>
<path d="M330.56 278.778H332.621C332.794 278.778 332.935 278.638 332.935 278.465V277.479C332.935 277.306 332.794 277.165 332.621 277.165H330.56C330.387 277.165 330.246 277.306 330.246 277.479V278.465C330.246 278.638 330.387 278.778 330.56 278.778Z" fill="#3F3D56"/>
<path d="M325.183 278.778H327.244C327.417 278.778 327.558 278.638 327.558 278.465V277.479C327.558 277.306 327.417 277.165 327.244 277.165H325.183C325.01 277.165 324.869 277.306 324.869 277.479V278.465C324.869 278.638 325.01 278.778 325.183 278.778Z" fill="#3F3D56"/>
<path d="M319.807 278.778H321.868C322.041 278.778 322.182 278.638 322.182 278.465V277.479C322.182 277.306 322.041 277.165 321.868 277.165H319.807C319.634 277.165 319.493 277.306 319.493 277.479V278.465C319.493 278.638 319.634 278.778 319.807 278.778Z" fill="#3F3D56"/>
<path d="M400.519 281.466H402.58C402.753 281.466 402.894 281.326 402.894 281.153V280.167C402.894 279.994 402.753 279.853 402.58 279.853H400.519C400.346 279.853 400.205 279.994 400.205 280.167V281.153C400.205 281.326 400.346 281.466 400.519 281.466Z" fill="#3F3D56"/>
<path d="M395.142 281.466H397.203C397.376 281.466 397.517 281.326 397.517 281.153V280.167C397.517 279.994 397.376 279.853 397.203 279.853H395.142C394.969 279.853 394.828 279.994 394.828 280.167V281.153C394.828 281.326 394.969 281.466 395.142 281.466Z" fill="#3F3D56"/>
<path d="M389.766 281.466H391.827C392 281.466 392.141 281.326 392.141 281.153V280.167C392.141 279.994 392 279.853 391.827 279.853H389.766C389.593 279.853 389.452 279.994 389.452 280.167V281.153C389.452 281.326 389.593 281.466 389.766 281.466Z" fill="#3F3D56"/>
<path d="M384.39 281.466H386.451C386.624 281.466 386.765 281.326 386.765 281.153V280.167C386.765 279.994 386.624 279.853 386.451 279.853H384.39C384.217 279.853 384.076 279.994 384.076 280.167V281.153C384.076 281.326 384.217 281.466 384.39 281.466Z" fill="#3F3D56"/>
<path d="M379.012 281.466H381.073C381.246 281.466 381.387 281.326 381.387 281.153V280.167C381.387 279.994 381.246 279.853 381.073 279.853H379.012C378.839 279.853 378.698 279.994 378.698 280.167V281.153C378.698 281.326 378.839 281.466 379.012 281.466Z" fill="#3F3D56"/>
<path d="M373.635 281.466H375.696C375.87 281.466 376.01 281.326 376.01 281.153V280.167C376.01 279.994 375.87 279.853 375.696 279.853H373.635C373.462 279.853 373.322 279.994 373.322 280.167V281.153C373.322 281.326 373.462 281.466 373.635 281.466Z" fill="#3F3D56"/>
<path d="M368.258 281.466H370.319C370.493 281.466 370.633 281.326 370.633 281.153V280.167C370.633 279.994 370.493 279.853 370.319 279.853H368.258C368.085 279.853 367.945 279.994 367.945 280.167V281.153C367.945 281.326 368.085 281.466 368.258 281.466Z" fill="#3F3D56"/>
<path d="M362.882 281.466H364.943C365.117 281.466 365.257 281.326 365.257 281.153V280.167C365.257 279.994 365.117 279.853 364.943 279.853H362.882C362.709 279.853 362.569 279.994 362.569 280.167V281.153C362.569 281.326 362.709 281.466 362.882 281.466Z" fill="#3F3D56"/>
<path d="M357.506 281.466H359.568C359.741 281.466 359.881 281.326 359.881 281.153V280.167C359.881 279.994 359.741 279.853 359.568 279.853H357.506C357.333 279.853 357.193 279.994 357.193 280.167V281.153C357.193 281.326 357.333 281.466 357.506 281.466Z" fill="#3F3D56"/>
<path d="M352.129 281.466H354.191C354.364 281.466 354.504 281.326 354.504 281.153V280.167C354.504 279.994 354.364 279.853 354.191 279.853H352.129C351.956 279.853 351.816 279.994 351.816 280.167V281.153C351.816 281.326 351.956 281.466 352.129 281.466Z" fill="#3F3D56"/>
<path d="M346.753 281.466H348.815C348.988 281.466 349.128 281.326 349.128 281.153V280.167C349.128 279.994 348.988 279.853 348.815 279.853H346.753C346.58 279.853 346.44 279.994 346.44 280.167V281.153C346.44 281.326 346.58 281.466 346.753 281.466Z" fill="#3F3D56"/>
<path d="M341.376 281.466H343.438C343.611 281.466 343.751 281.326 343.751 281.153V280.167C343.751 279.994 343.611 279.853 343.438 279.853H341.376C341.203 279.853 341.063 279.994 341.063 280.167V281.153C341.063 281.326 341.203 281.466 341.376 281.466Z" fill="#3F3D56"/>
<path d="M336 281.466H338.062C338.235 281.466 338.375 281.326 338.375 281.153V280.167C338.375 279.994 338.235 279.853 338.062 279.853H336C335.827 279.853 335.687 279.994 335.687 280.167V281.153C335.687 281.326 335.827 281.466 336 281.466Z" fill="#3F3D56"/>
<path d="M330.623 281.466H332.685C332.858 281.466 332.998 281.326 332.998 281.153V280.167C332.998 279.994 332.858 279.853 332.685 279.853H330.623C330.45 279.853 330.31 279.994 330.31 280.167V281.153C330.31 281.326 330.45 281.466 330.623 281.466Z" fill="#3F3D56"/>
<path d="M325.246 281.466H327.308C327.481 281.466 327.621 281.326 327.621 281.153V280.167C327.621 279.994 327.481 279.853 327.308 279.853H325.246C325.073 279.853 324.933 279.994 324.933 280.167V281.153C324.933 281.326 325.073 281.466 325.246 281.466Z" fill="#3F3D56"/>
<path d="M319.87 281.466H321.932C322.105 281.466 322.245 281.326 322.245 281.153V280.167C322.245 279.994 322.105 279.853 321.932 279.853H319.87C319.697 279.853 319.557 279.994 319.557 280.167V281.153C319.557 281.326 319.697 281.466 319.87 281.466Z" fill="#3F3D56"/>
<path d="M355.893 284.692H376.773C376.946 284.692 377.086 284.552 377.086 284.379V283.393C377.086 283.22 376.946 283.079 376.773 283.079H355.893C355.72 283.079 355.58 283.22 355.58 283.393V284.379C355.58 284.552 355.72 284.692 355.893 284.692Z" fill="#3F3D56"/>
<path d="M333.771 230.327H331.946C331.393 230.327 330.944 230.775 330.944 231.329C330.944 231.882 331.393 232.331 331.946 232.331H333.771C334.325 232.331 334.773 231.882 334.773 231.329C334.773 230.775 334.325 230.327 333.771 230.327Z" fill="white"/>
<path d="M354.645 230.327H352.82C352.267 230.327 351.818 230.775 351.818 231.329C351.818 231.882 352.267 232.331 352.82 232.331H354.645C355.199 232.331 355.647 231.882 355.647 231.329C355.647 230.775 355.199 230.327 354.645 230.327Z" fill="white"/>
<path d="M360.56 230.327H358.734C358.181 230.327 357.732 230.775 357.732 231.329C357.732 231.882 358.181 232.331 358.734 232.331H360.56C361.113 232.331 361.561 231.882 361.561 231.329C361.561 230.775 361.113 230.327 360.56 230.327Z" fill="white"/>
<path d="M348.968 230.16H337.624C337.071 230.16 336.622 230.608 336.622 231.162C336.622 231.715 337.071 232.164 337.624 232.164H348.968C349.521 232.164 349.97 231.715 349.97 231.162C349.97 230.608 349.521 230.16 348.968 230.16Z" fill="white"/>
<path d="M376.8 230.16H365.456C364.903 230.16 364.454 230.608 364.454 231.162C364.454 231.715 364.903 232.164 365.456 232.164H376.8C377.353 232.164 377.802 231.715 377.802 231.162C377.802 230.608 377.353 230.16 376.8 230.16Z" fill="white"/>
<path d="M339.339 234.849H337.514C336.96 234.849 336.512 235.298 336.512 235.851C336.512 236.405 336.96 236.853 337.514 236.853H339.339C339.892 236.853 340.341 236.405 340.341 235.851C340.341 235.298 339.892 234.849 339.339 234.849Z" fill="white"/>
<path d="M360.212 234.849H358.387C357.833 234.849 357.385 235.298 357.385 235.851C357.385 236.405 357.833 236.853 358.387 236.853H360.212C360.765 236.853 361.214 236.405 361.214 235.851C361.214 235.298 360.765 234.849 360.212 234.849Z" fill="white"/>
<path d="M366.126 234.849H364.301C363.747 234.849 363.299 235.298 363.299 235.851C363.299 236.405 363.747 236.853 364.301 236.853H366.126C366.679 236.853 367.128 236.405 367.128 235.851C367.128 235.298 366.679 234.849 366.126 234.849Z" fill="white"/>
<path d="M354.535 234.682H343.191C342.638 234.682 342.189 235.131 342.189 235.684C342.189 236.238 342.638 236.686 343.191 236.686H354.535C355.088 236.686 355.537 236.238 355.537 235.684C355.537 235.131 355.088 234.682 354.535 234.682Z" fill="white"/>
<path d="M382.366 234.682H371.022C370.469 234.682 370.021 235.131 370.021 235.684C370.021 236.238 370.469 236.686 371.022 236.686H382.366C382.919 236.686 383.368 236.238 383.368 235.684C383.368 235.131 382.919 234.682 382.366 234.682Z" fill="white"/>
<path d="M344.904 239.372H343.079C342.526 239.372 342.077 239.821 342.077 240.374C342.077 240.927 342.526 241.376 343.079 241.376H344.904C345.458 241.376 345.906 240.927 345.906 240.374C345.906 239.821 345.458 239.372 344.904 239.372Z" fill="white"/>
<path d="M365.778 239.372H363.953C363.4 239.372 362.951 239.821 362.951 240.374C362.951 240.927 363.4 241.376 363.953 241.376H365.778C366.332 241.376 366.78 240.927 366.78 240.374C366.78 239.821 366.332 239.372 365.778 239.372Z" fill="white"/>
<path d="M371.693 239.372H369.868C369.315 239.372 368.866 239.821 368.866 240.374C368.866 240.927 369.315 241.376 369.868 241.376H371.693C372.247 241.376 372.695 240.927 372.695 240.374C372.695 239.821 372.247 239.372 371.693 239.372Z" fill="white"/>
<path d="M360.101 239.205H348.758C348.204 239.205 347.756 239.653 347.756 240.207C347.756 240.76 348.204 241.209 348.758 241.209H360.101C360.655 241.209 361.103 240.76 361.103 240.207C361.103 239.653 360.655 239.205 360.101 239.205Z" fill="white"/>
<path d="M387.933 239.205H376.59C376.036 239.205 375.588 239.653 375.588 240.207C375.588 240.76 376.036 241.209 376.59 241.209H387.933C388.487 241.209 388.935 240.76 388.935 240.207C388.935 239.653 388.487 239.205 387.933 239.205Z" fill="white"/>
<path d="M350.471 243.894H348.646C348.092 243.894 347.644 244.343 347.644 244.896C347.644 245.449 348.092 245.898 348.646 245.898H350.471C351.024 245.898 351.473 245.449 351.473 244.896C351.473 244.343 351.024 243.894 350.471 243.894Z" fill="white"/>
<path d="M371.345 243.894H369.52C368.966 243.894 368.518 244.343 368.518 244.896C368.518 245.449 368.966 245.898 369.52 245.898H371.345C371.898 245.898 372.347 245.449 372.347 244.896C372.347 244.343 371.898 243.894 371.345 243.894Z" fill="white"/>
<path d="M377.259 243.894H375.434C374.88 243.894 374.432 244.343 374.432 244.896C374.432 245.449 374.88 245.898 375.434 245.898H377.259C377.812 245.898 378.261 245.449 378.261 244.896C378.261 244.343 377.812 243.894 377.259 243.894Z" fill="white"/>
<path d="M365.667 243.728H354.323C353.77 243.728 353.321 244.176 353.321 244.729C353.321 245.283 353.77 245.731 354.323 245.731H365.667C366.22 245.731 366.669 245.283 366.669 244.729C366.669 244.176 366.22 243.728 365.667 243.728Z" fill="white"/>
<path d="M354.645 261.878H352.82C352.267 261.878 351.818 262.326 351.818 262.88C351.818 263.433 352.267 263.882 352.82 263.882H354.645C355.199 263.882 355.647 263.433 355.647 262.88C355.647 262.326 355.199 261.878 354.645 261.878Z" fill="white"/>
<path d="M360.56 261.878H358.734C358.181 261.878 357.732 262.326 357.732 262.88C357.732 263.433 358.181 263.882 358.734 263.882H360.56C361.113 263.882 361.561 263.433 361.561 262.88C361.561 262.326 361.113 261.878 360.56 261.878Z" fill="white"/>
<path d="M376.8 262.045H365.456C364.903 262.045 364.454 262.494 364.454 263.047C364.454 263.6 364.903 264.049 365.456 264.049H376.8C377.353 264.049 377.802 263.6 377.802 263.047C377.802 262.494 377.353 262.045 376.8 262.045Z" fill="white"/>
<path d="M333.771 261.878H331.946C331.393 261.878 330.944 262.326 330.944 262.88C330.944 263.433 331.393 263.882 331.946 263.882H333.771C334.325 263.882 334.773 263.433 334.773 262.88C334.773 262.326 334.325 261.878 333.771 261.878Z" fill="white"/>
<path d="M348.968 262.045H337.624C337.071 262.045 336.622 262.494 336.622 263.047C336.622 263.6 337.071 264.049 337.624 264.049H348.968C349.521 264.049 349.97 263.6 349.97 263.047C349.97 262.494 349.521 262.045 348.968 262.045Z" fill="white"/>
<path d="M339.339 257.355H337.514C336.96 257.355 336.512 257.804 336.512 258.357C336.512 258.911 336.96 259.359 337.514 259.359H339.339C339.892 259.359 340.341 258.911 340.341 258.357C340.341 257.804 339.892 257.355 339.339 257.355Z" fill="white"/>
<path d="M360.212 257.355H358.387C357.833 257.355 357.385 257.804 357.385 258.357C357.385 258.911 357.833 259.359 358.387 259.359H360.212C360.765 259.359 361.214 258.911 361.214 258.357C361.214 257.804 360.765 257.355 360.212 257.355Z" fill="white"/>
<path d="M366.126 257.355H364.301C363.747 257.355 363.299 257.804 363.299 258.357C363.299 258.911 363.747 259.359 364.301 259.359H366.126C366.679 259.359 367.128 258.911 367.128 258.357C367.128 257.804 366.679 257.355 366.126 257.355Z" fill="white"/>
<path d="M354.535 257.522H343.191C342.638 257.522 342.189 257.971 342.189 258.524C342.189 259.078 342.638 259.526 343.191 259.526H354.535C355.088 259.526 355.537 259.078 355.537 258.524C355.537 257.971 355.088 257.522 354.535 257.522Z" fill="white"/>
<path d="M344.904 252.833H343.079C342.526 252.833 342.077 253.281 342.077 253.835C342.077 254.388 342.526 254.837 343.079 254.837H344.904C345.458 254.837 345.906 254.388 345.906 253.835C345.906 253.281 345.458 252.833 344.904 252.833Z" fill="white"/>
<path d="M365.778 252.833H363.953C363.4 252.833 362.951 253.281 362.951 253.835C362.951 254.388 363.4 254.837 363.953 254.837H365.778C366.332 254.837 366.78 254.388 366.78 253.835C366.78 253.281 366.332 252.833 365.778 252.833Z" fill="white"/>
<path d="M371.693 252.833H369.868C369.315 252.833 368.866 253.281 368.866 253.835C368.866 254.388 369.315 254.837 369.868 254.837H371.693C372.247 254.837 372.695 254.388 372.695 253.835C372.695 253.281 372.247 252.833 371.693 252.833Z" fill="white"/>
<path d="M360.101 253H348.758C348.204 253 347.756 253.449 347.756 254.002C347.756 254.555 348.204 255.004 348.758 255.004H360.101C360.655 255.004 361.103 254.555 361.103 254.002C361.103 253.449 360.655 253 360.101 253Z" fill="white"/>
<path d="M350.471 248.311H348.646C348.092 248.311 347.644 248.759 347.644 249.312C347.644 249.866 348.092 250.314 348.646 250.314H350.471C351.024 250.314 351.473 249.866 351.473 249.312C351.473 248.759 351.024 248.311 350.471 248.311Z" fill="white"/>
<path d="M371.345 248.311H369.52C368.966 248.311 368.518 248.759 368.518 249.312C368.518 249.866 368.966 250.314 369.52 250.314H371.345C371.898 250.314 372.347 249.866 372.347 249.312C372.347 248.759 371.898 248.311 371.345 248.311Z" fill="white"/>
<path d="M377.259 248.311H375.434C374.88 248.311 374.432 248.759 374.432 249.312C374.432 249.866 374.88 250.314 375.434 250.314H377.259C377.812 250.314 378.261 249.866 378.261 249.312C378.261 248.759 377.812 248.311 377.259 248.311Z" fill="white"/>
<path d="M365.667 248.477H354.323C353.77 248.477 353.321 248.926 353.321 249.479C353.321 250.033 353.77 250.481 354.323 250.481H365.667C366.22 250.481 366.669 250.033 366.669 249.479C366.669 248.926 366.22 248.477 365.667 248.477Z" fill="white"/>
<path d="M324.068 314.88L315.5 301.337L342.394 279.899L353.494 267.602C354.936 266.004 356.773 264.813 358.82 264.147C360.866 263.481 363.052 263.364 365.158 263.808C367.264 264.252 369.217 265.24 370.822 266.675C372.426 268.109 373.626 269.94 374.301 271.984C375.301 275.012 375.086 278.311 373.701 281.184C372.315 284.056 369.868 286.279 366.875 287.381L349.322 293.847L324.068 314.88Z" fill="#FFB6B6"/>
<path d="M123.03 216.685V282.507H169.145V216.685C169.146 216.211 168.995 215.75 168.714 215.369C168.434 214.988 168.038 214.707 167.586 214.567C167.373 214.497 167.149 214.462 166.925 214.464H125.257C124.965 214.464 124.676 214.521 124.406 214.632C124.136 214.743 123.89 214.907 123.684 215.113C123.477 215.319 123.313 215.564 123.2 215.834C123.088 216.104 123.031 216.393 123.03 216.685V216.685ZM141.027 239.302C141.039 238.004 141.563 236.764 142.485 235.85C143.407 234.937 144.652 234.425 145.95 234.425C147.248 234.425 148.493 234.937 149.415 235.85C150.337 236.764 150.861 238.004 150.873 239.302V246.939C150.866 248.24 150.344 249.486 149.422 250.404C148.499 251.321 147.251 251.837 145.95 251.837C144.649 251.837 143.4 251.321 142.478 250.404C141.555 249.486 141.034 248.24 141.027 246.939V239.302Z" fill="#2F2E41"/>
<path d="M122.891 280.402V286.75C122.892 287.078 123.022 287.394 123.254 287.627C123.486 287.86 123.801 287.992 124.129 287.995H168.049C168.379 287.993 168.694 287.861 168.926 287.628C169.158 287.395 169.288 287.079 169.288 286.75V280.402H122.891Z" fill="#3F3D56"/>
<path d="M50.4854 117.515V237.697C50.4866 239.229 51.0955 240.697 52.1786 241.78C53.2616 242.863 54.7301 243.472 56.2618 243.473H234.368C235.9 243.472 237.368 242.863 238.451 241.78C239.534 240.697 240.143 239.229 240.144 237.697V117.515C240.141 115.984 239.531 114.518 238.448 113.437C237.365 112.355 235.898 111.747 234.368 111.745H56.2618C54.7315 111.747 53.2643 112.355 52.1816 113.437C51.099 114.518 50.489 115.984 50.4854 117.515Z" fill="#3F3D56"/>
<path d="M54.6631 119.01V236.215C54.6645 237.033 54.9902 237.817 55.5688 238.396C56.1475 238.975 56.9319 239.3 57.7503 239.302H232.885C233.703 239.3 234.487 238.975 235.066 238.396C235.645 237.817 235.971 237.033 235.972 236.215V119.01C235.972 118.191 235.647 117.405 235.068 116.825C234.489 116.245 233.704 115.918 232.885 115.917H57.7503C56.9309 115.918 56.1458 116.245 55.567 116.825C54.9882 117.405 54.6632 118.191 54.6631 119.01Z" fill="white"/>
<path d="M87.1664 287.565C87.3447 287.788 87.5713 287.968 87.8292 288.092C88.0871 288.215 88.3696 288.278 88.6555 288.277H192.849C193.134 288.277 193.415 288.213 193.673 288.09C193.93 287.967 194.156 287.789 194.336 287.568C194.515 287.346 194.643 287.088 194.71 286.811C194.777 286.534 194.782 286.245 194.723 285.967L193.106 278.284C193.039 277.971 192.895 277.679 192.686 277.436C192.477 277.193 192.211 277.006 191.912 276.892C191.695 276.806 191.465 276.763 191.232 276.763H90.2664C90.0336 276.763 89.8028 276.806 89.5861 276.892C89.2868 277.006 89.0207 277.193 88.8122 277.436C88.6037 277.679 88.4593 277.971 88.3923 278.284L86.7749 285.967C86.7174 286.245 86.7227 286.533 86.7904 286.81C86.8581 287.086 86.9866 287.344 87.1664 287.565Z" fill="#2F2E41"/>
<path d="M227.202 132.062H63.3297C63.1594 132.058 62.9973 131.988 62.8782 131.866C62.7591 131.744 62.6924 131.581 62.6924 131.41C62.6924 131.24 62.7591 131.076 62.8782 130.954C62.9973 130.833 63.1594 130.762 63.3297 130.759H227.202C227.373 130.762 227.535 130.833 227.654 130.954C227.773 131.076 227.84 131.24 227.84 131.41C227.84 131.581 227.773 131.744 227.654 131.866C227.535 131.988 227.373 132.058 227.202 132.062V132.062Z" fill="#3F3D56"/>
<path d="M74.4851 127.431C76.5944 127.431 78.3043 125.684 78.3043 123.527C78.3043 121.371 76.5944 119.623 74.4851 119.623C72.3759 119.623 70.666 121.371 70.666 123.527C70.666 125.684 72.3759 127.431 74.4851 127.431Z" fill="#3F3D56"/>
<path d="M87.6775 127.431C89.7868 127.431 91.4967 125.684 91.4967 123.527C91.4967 121.371 89.7868 119.623 87.6775 119.623C85.5683 119.623 83.8584 121.371 83.8584 123.527C83.8584 125.684 85.5683 127.431 87.6775 127.431Z" fill="#3F3D56"/>
<path d="M100.872 127.431C102.981 127.431 104.691 125.684 104.691 123.527C104.691 121.371 102.981 119.623 100.872 119.623C98.7626 119.623 97.0527 121.371 97.0527 123.527C97.0527 125.684 98.7626 127.431 100.872 127.431Z" fill="#3F3D56"/>
<path d="M219.258 120.589H209.887C209.702 120.593 209.526 120.67 209.396 120.802C209.267 120.935 209.194 121.113 209.194 121.298C209.194 121.483 209.267 121.661 209.396 121.794C209.526 121.926 209.702 122.003 209.887 122.007H219.258C219.444 122.004 219.622 121.929 219.753 121.796C219.884 121.663 219.957 121.484 219.957 121.298C219.957 121.111 219.884 120.933 219.753 120.8C219.622 120.667 219.444 120.591 219.258 120.589Z" fill="#3F3D56"/>
<path d="M219.258 123.252H209.887C209.702 123.256 209.525 123.333 209.396 123.465C209.266 123.598 209.193 123.776 209.193 123.961C209.193 124.147 209.266 124.325 209.396 124.457C209.525 124.59 209.702 124.666 209.887 124.671H219.258C219.444 124.668 219.623 124.593 219.754 124.46C219.885 124.327 219.958 124.148 219.958 123.961C219.958 123.775 219.885 123.596 219.754 123.463C219.623 123.33 219.444 123.254 219.258 123.252V123.252Z" fill="#3F3D56"/>
<path d="M219.258 125.916H209.887C209.702 125.92 209.526 125.996 209.396 126.129C209.267 126.262 209.194 126.439 209.194 126.625C209.194 126.81 209.267 126.988 209.396 127.12C209.526 127.253 209.702 127.33 209.887 127.334H219.258C219.444 127.331 219.622 127.255 219.753 127.123C219.884 126.99 219.957 126.811 219.957 126.625C219.957 126.438 219.884 126.259 219.753 126.127C219.622 125.994 219.444 125.918 219.258 125.916V125.916Z" fill="#3F3D56"/>
<path d="M445.167 283.188C445.449 284.011 445.986 284.724 446.699 285.223C447.412 285.722 448.265 285.983 449.135 285.967L466.138 285.53C467.015 285.513 467.863 285.212 468.555 284.674C469.247 284.135 469.746 283.387 469.977 282.541L472.383 256.813C473.237 257.2 474.166 257.391 475.103 257.372C475.917 257.352 476.719 257.171 477.463 256.841C478.208 256.51 478.88 256.037 479.441 255.447C480.002 254.856 480.441 254.162 480.734 253.402C481.027 252.642 481.167 251.832 481.146 251.018C481.126 250.204 480.945 249.402 480.615 248.658C480.285 247.913 479.811 247.241 479.221 246.68C478.631 246.119 477.936 245.68 477.176 245.387C476.416 245.094 475.606 244.954 474.792 244.975C474.417 244.974 474.044 245.012 473.678 245.091C473.279 244.66 472.795 244.317 472.256 244.085C471.718 243.852 471.136 243.735 470.549 243.741L444.395 244.416C444.178 244.424 443.962 244.451 443.749 244.496C443.176 244.603 442.632 244.832 442.154 245.167C441.676 245.501 441.276 245.935 440.979 246.437C440.683 246.94 440.498 247.5 440.436 248.08C440.374 248.66 440.438 249.247 440.622 249.801L445.167 283.188ZM472.876 255.066L474.589 248.935C474.783 248.227 474.788 247.48 474.602 246.77C474.685 246.769 474.758 246.73 474.841 246.73C476.015 246.706 477.151 247.148 477.999 247.96C478.848 248.771 479.339 249.886 479.367 251.06C479.394 252.234 478.955 253.371 478.146 254.221C477.336 255.072 476.223 255.567 475.049 255.598C474.29 255.621 473.539 255.438 472.876 255.066Z" fill="#2F2E41"/>
<path d="M443.749 244.497C444.306 247.683 450.571 249.922 458.104 249.533C465.031 249.214 470.695 246.782 471.733 243.899C471.349 243.785 470.949 243.732 470.549 243.741L444.394 244.417C444.177 244.425 443.961 244.451 443.749 244.497V244.497Z" fill="#3F3D56"/>
<path d="M459.485 269.05C459.519 269.042 459.552 269.027 459.581 269.008L463.274 266.591C463.319 266.562 463.355 266.522 463.381 266.475C463.406 266.428 463.419 266.376 463.419 266.323C463.419 266.269 463.406 266.217 463.381 266.17C463.355 266.123 463.319 266.083 463.274 266.054L459.436 263.541C459.401 263.517 459.361 263.501 459.32 263.493C459.279 263.485 459.236 263.485 459.195 263.494C459.153 263.502 459.114 263.519 459.079 263.543C459.044 263.566 459.014 263.597 458.991 263.632C458.968 263.668 458.952 263.707 458.944 263.749C458.936 263.79 458.937 263.833 458.945 263.874C458.954 263.915 458.971 263.955 458.995 263.989C459.019 264.024 459.049 264.054 459.085 264.077L462.512 266.322L459.23 268.471C459.167 268.512 459.12 268.575 459.098 268.648C459.077 268.721 459.081 268.799 459.112 268.868C459.142 268.938 459.197 268.994 459.265 269.028C459.333 269.061 459.411 269.069 459.485 269.05H459.485Z" fill="#4831D4"/>
<path d="M453.652 269.319C453.714 269.304 453.77 269.27 453.813 269.222C453.855 269.174 453.883 269.115 453.891 269.052C453.9 268.988 453.89 268.924 453.862 268.867C453.833 268.809 453.789 268.762 453.733 268.73L450.33 266.778L453.619 264.335C453.653 264.31 453.682 264.278 453.703 264.242C453.725 264.206 453.739 264.166 453.745 264.124C453.751 264.083 453.749 264.04 453.739 263.999C453.729 263.958 453.711 263.92 453.685 263.886C453.66 263.852 453.629 263.824 453.593 263.802C453.556 263.781 453.516 263.766 453.475 263.76C453.433 263.754 453.391 263.756 453.35 263.767C453.309 263.777 453.271 263.795 453.237 263.82L449.554 266.556C449.511 266.588 449.477 266.63 449.454 266.678C449.431 266.726 449.421 266.779 449.424 266.832C449.428 266.886 449.444 266.937 449.472 266.982C449.5 267.028 449.539 267.065 449.585 267.092L453.414 269.286C453.486 269.328 453.572 269.34 453.652 269.319V269.319Z" fill="#4831D4"/>
<path d="M459.117 271.168C459.148 271.16 459.178 271.148 459.205 271.131C459.241 271.109 459.273 271.08 459.298 271.046C459.322 271.012 459.34 270.974 459.35 270.933C459.36 270.892 459.362 270.849 459.356 270.808C459.349 270.766 459.335 270.726 459.313 270.69L454.078 262.085C454.034 262.012 453.963 261.96 453.88 261.94C453.797 261.92 453.71 261.934 453.637 261.978C453.565 262.022 453.513 262.094 453.493 262.176C453.472 262.259 453.486 262.346 453.53 262.419L458.764 271.024C458.8 271.083 458.854 271.128 458.917 271.154C458.981 271.18 459.051 271.185 459.117 271.168Z" fill="#4831D4"/>
<path d="M164.845 167.489H136.483C135.326 167.489 134.388 168.427 134.388 169.584V172.355C134.388 173.512 135.326 174.45 136.483 174.45H164.845C166.002 174.45 166.94 173.512 166.94 172.355V169.584C166.94 168.427 166.002 167.489 164.845 167.489Z" fill="#4831D4"/>
<path d="M181.378 181.41H119.95C118.793 181.41 117.855 182.348 117.855 183.505V186.276C117.855 187.433 118.793 188.371 119.95 188.371H181.378C182.535 188.371 183.473 187.433 183.473 186.276V183.505C183.473 182.348 182.535 181.41 181.378 181.41Z" fill="#E6E6E6"/>
<path d="M181.378 195.332H119.95C118.793 195.332 117.855 196.27 117.855 197.427V200.198C117.855 201.355 118.793 202.293 119.95 202.293H181.378C182.535 202.293 183.473 201.355 183.473 200.198V197.427C183.473 196.27 182.535 195.332 181.378 195.332Z" fill="#E6E6E6"/>
<path d="M186.585 241.949L186.724 242.388L186.731 242.403L190.919 255.135L195.737 269.807L204.801 297.379L204.889 301.662V301.677L205.563 336.131L203.696 340.802L205.797 348.461C205.797 348.461 204.831 336.885 199.647 343.532C196.711 347.31 193.277 351.176 190.458 354.8C194.566 356.462 198.739 357.965 202.978 359.31C203.894 359.603 204.816 359.881 205.739 360.159C205.936 360.218 206.134 360.276 206.332 360.335C220.384 364.491 234.912 366.826 249.559 367.283C250.32 367.305 251.067 367.32 251.792 367.334C252.048 367.342 252.297 367.349 252.546 367.349C253.366 367.356 254.179 367.364 254.999 367.364C256.654 367.364 258.301 367.339 259.941 367.29C272.08 366.948 284.148 365.316 295.942 362.422C295.862 357.553 295.642 351.864 295.327 345.787C295.181 342.808 291.893 339.579 291.695 336.46C291.556 334.117 294.507 331.913 294.353 329.534C293.358 314.884 292.113 320.508 291.19 310.133C291.095 309.115 291.007 308.142 290.927 307.212C290.334 300.549 289.924 296.384 289.924 296.384L293.863 271.557L300.05 232.578L299.574 231.794L299.039 231.531L266.406 215.38L264.634 210.84C264.118 209.533 263.222 208.409 262.063 207.615C260.903 206.82 259.531 206.391 258.125 206.382L236.629 206.294C235.513 206.289 234.413 206.55 233.418 207.055C232.424 207.561 231.564 208.296 230.911 209.2L225.09 217.261L186.585 241.949Z" fill="#3F3D56"/>
<path d="M209.759 291.244L204.89 301.662L201.566 308.779L195.848 338.716L192.985 341.754L190.532 330.998L164.86 336.698C164.018 332.02 164.635 336.856 164.115 331.724C164.262 331.578 164.415 331.431 164.569 331.285C164.979 330.904 165.323 330.545 165.316 330.201C165.023 312.498 165.902 282.37 173.238 264.118C174.387 261.138 175.902 258.312 177.748 255.706C177.895 255.508 178.034 255.311 178.173 255.113C181.556 250.376 183.694 245.712 186.725 242.396V242.388C186.744 242.373 186.761 242.356 186.776 242.337C186.787 242.332 186.797 242.324 186.805 242.315L207.628 231.274L208.521 256.372L209.158 274.412L209.759 291.244Z" fill="#3F3D56"/>
<path d="M284.842 294.203L290.924 307.216L293.046 311.747L298.763 341.682L301.617 344.713L304.075 333.959L305.23 333.722L326.063 329.408L332.135 348.692C333.503 346.411 334.042 343.729 333.661 341.097C333.28 338.465 332.001 336.046 330.042 334.248C329.627 333.872 329.281 333.507 329.291 333.162C329.637 312.34 328.363 274.319 316.861 258.671C313.208 253.705 311.016 248.759 307.827 245.303C307.817 245.293 307.817 245.283 307.807 245.283L300.047 232.577L299.573 231.797L299.04 231.531L284.842 294.203Z" fill="#3F3D56"/>
<path d="M247.998 200.177C263.793 200.177 276.597 187.373 276.597 171.579C276.597 155.785 263.793 142.982 247.998 142.982C232.203 142.982 219.399 155.785 219.399 171.579C219.399 187.373 232.203 200.177 247.998 200.177Z" fill="#FFB6B6"/>
<path d="M286.654 151.604C286.432 151.367 286.165 151.178 285.868 151.046C285.571 150.915 285.251 150.845 284.927 150.84L285.357 149.647C285.497 149.271 285.535 148.864 285.467 148.469C285.398 148.073 285.226 147.703 284.967 147.396C284.709 147.089 284.373 146.856 283.995 146.722C283.617 146.587 283.21 146.556 282.815 146.63L281.249 146.932L281.397 145.886C281.454 145.496 281.408 145.098 281.264 144.732C281.12 144.365 280.884 144.042 280.577 143.795C280.271 143.548 279.906 143.384 279.517 143.321C279.129 143.258 278.73 143.297 278.361 143.434C278.026 143.566 277.665 143.621 277.305 143.596C276.945 143.57 276.595 143.465 276.282 143.286C275.967 143.114 275.693 142.874 275.481 142.585C275.268 142.296 275.121 141.963 275.049 141.611L274.504 138.98L274.446 138.839C271.789 134.41 266.68 131.188 260.429 130.008C254.864 128.949 249.158 129.488 243.658 129.995C241.476 130.2 239.011 130.431 236.957 131.689C235.211 132.767 233.735 134.924 234.037 137.099C228.613 135.437 222.798 138.755 219.917 142.94C216.502 147.92 215.944 154.158 215.854 159.036C215.61 170.576 217.991 180.016 222.914 187.102C223.273 187.615 223.363 188.687 224.076 189.046L223.928 188.809C224.724 189.207 225.533 189.849 225.231 190.535C224.364 192.512 230.122 196.883 234.178 198.327C241.578 200.965 251.417 200.74 258.336 199.79L258.58 198.154C261.077 197.813 262.835 197.165 263.33 196.151C264.203 195.407 264.947 194.739 265.595 194.123L265.602 194.117C265.615 194.104 265.64 194.085 265.653 194.072C268.779 191.074 269.504 189.367 269.831 186.768C270.146 184.22 269.587 181.634 269.016 179.304C281.044 181.165 264.28 166.494 275.486 163.657C275.614 163.617 275.745 163.585 275.877 163.561C276.205 163.484 276.532 163.407 276.846 163.317C278.362 162.905 279.814 162.285 281.16 161.475C284.292 159.569 285.325 157.04 286.942 154.19C287.176 153.785 287.274 153.315 287.222 152.85C287.17 152.385 286.971 151.948 286.654 151.604V151.604Z" fill="#2F2E41"/>
<path d="M349.148 296.239C349.141 297.362 349.128 298.935 349.077 300.879C349.071 301.149 349.064 301.425 349.058 301.707C348.974 305.282 348.891 308.279 348.756 311.61C348.75 311.841 348.743 312.066 348.73 312.297C348.551 316.943 348.268 322.354 347.781 330.922C346.876 346.748 345.297 333.097 343.711 338.649C343.634 338.925 343.551 339.252 343.474 339.637C343.234 341.034 342.829 342.398 342.267 343.7C341.426 344.2 340.56 344.682 339.706 345.163C337.274 346.517 334.803 347.82 332.313 349.059C330.913 349.752 329.508 350.432 328.096 351.087C327.871 351.19 327.653 351.292 327.435 351.389C320.204 354.733 312.752 357.576 305.131 359.899C303.642 360.348 302.16 360.784 300.658 361.189C299.092 361.625 297.526 362.036 295.94 362.421C284.147 365.316 272.079 366.949 259.941 367.292C258.304 367.344 256.654 367.363 254.999 367.363C254.177 367.363 253.368 367.356 252.547 367.35C252.296 367.35 252.046 367.344 251.796 367.337C251.071 367.318 250.32 367.305 249.562 367.286C234.915 366.829 220.387 364.493 206.335 360.335L205.739 360.162C204.814 359.88 203.896 359.604 202.979 359.308C198.743 357.967 194.569 356.465 190.457 354.803C187.318 353.539 184.216 352.182 181.15 350.734C181.122 350.726 181.096 350.713 181.073 350.695C180.431 350.4 179.783 350.092 179.141 349.778C179.058 349.733 178.968 349.688 178.878 349.643C176.484 348.475 174.116 347.251 171.773 345.972C169.803 341.447 167.03 340.581 165.31 336.602C164.809 335.419 164.448 334.183 164.232 332.918C164.232 332.905 164.225 332.892 164.225 332.873C164.405 335.26 163.462 328.637 164.219 332.847C164.212 332.77 164.206 332.687 164.2 332.59C164.18 332.359 164.155 332.077 164.116 331.724C161.915 310.23 162.056 285.649 161.1 265.394C161.035 264.085 160.969 262.831 160.901 261.633C160.881 261.235 160.856 260.844 160.83 260.459C160.875 260.343 160.926 260.221 160.984 260.106C160.996 260.073 161.011 260.04 161.029 260.01C161.048 259.97 161.069 259.931 161.093 259.894C161.106 259.875 161.125 259.849 161.138 259.83C161.148 259.808 161.158 259.787 161.17 259.766C161.228 259.676 161.292 259.58 161.363 259.49C161.395 259.451 161.421 259.419 161.453 259.387C161.475 259.354 161.501 259.324 161.53 259.297C161.549 259.266 161.573 259.238 161.6 259.214C161.626 259.188 161.652 259.156 161.684 259.124C161.697 259.104 161.715 259.086 161.735 259.073C161.786 259.014 161.842 258.961 161.902 258.912C162.131 258.702 162.376 258.508 162.634 258.335C162.723 258.277 162.82 258.219 162.91 258.155C163.556 257.768 164.237 257.441 164.944 257.179C165.188 257.09 165.432 257.006 165.695 256.916C165.791 256.891 165.881 256.858 165.978 256.826C166.119 256.781 166.26 256.737 166.408 256.704C167.139 256.486 167.929 256.3 168.782 256.127C168.885 256.108 168.994 256.088 169.103 256.063C169.257 256.031 169.418 256.005 169.578 255.979C169.796 255.941 170.021 255.902 170.246 255.864C172.152 255.562 174.315 255.337 176.702 255.19C176.927 255.177 177.152 255.164 177.376 255.151C177.639 255.138 177.903 255.126 178.172 255.113C178.397 255.1 178.628 255.094 178.859 255.087C179.084 255.074 179.315 255.068 179.552 255.061C180.2 255.042 180.868 255.023 181.548 255.01C183.486 254.972 185.527 254.984 187.671 255.029C188.666 255.055 189.68 255.081 190.72 255.126C190.79 255.126 190.855 255.132 190.919 255.132C191.824 255.164 192.735 255.203 193.672 255.254C194.327 255.286 194.988 255.318 195.649 255.357C196.272 255.395 196.901 255.434 197.536 255.479C198.03 255.504 198.524 255.543 199.025 255.575C199.449 255.607 199.872 255.639 200.296 255.665L200.873 255.703C201.188 255.729 201.502 255.748 201.823 255.78C202.529 255.838 203.235 255.896 203.954 255.954C204.667 256.018 205.392 256.082 206.117 256.146C206.842 256.21 207.574 256.281 208.306 256.351C208.383 256.358 208.453 256.364 208.524 256.371C209.192 256.441 209.859 256.505 210.533 256.576C210.687 256.589 210.847 256.602 211.001 256.621C211.644 256.686 212.299 256.761 212.947 256.83C213.146 256.852 213.344 256.872 213.544 256.894C214.052 256.949 214.553 256.997 215.064 257.057C215.738 257.134 216.425 257.205 217.092 257.295C217.612 257.353 218.132 257.41 218.652 257.475C219.467 257.571 220.295 257.674 221.123 257.783C221.437 257.821 221.752 257.86 222.066 257.905C224.428 258.2 226.816 258.527 229.242 258.867C232.92 259.387 236.655 259.952 240.416 260.562C244.184 261.171 247.973 261.815 251.783 262.493C252.746 262.667 253.708 262.84 254.678 263.02C255.114 263.103 255.55 263.187 255.987 263.27C256.731 263.405 257.476 263.546 258.22 263.687C258.965 263.828 259.709 263.97 260.454 264.117C261.34 264.29 262.232 264.464 263.117 264.637C268.952 265.792 274.754 267.025 280.415 268.315C281.345 268.526 282.276 268.745 283.2 268.956C285.049 269.386 286.88 269.823 288.694 270.266C289.195 270.381 289.689 270.503 290.183 270.625C291.416 270.933 292.648 271.241 293.861 271.556L294.073 271.613C294.965 271.832 295.838 272.056 296.711 272.287C298.771 272.826 300.797 273.372 302.789 273.924C304.111 274.29 305.418 274.66 306.71 275.034C308.642 275.592 310.535 276.157 312.377 276.728C312.833 276.87 313.289 277.011 313.738 277.146C315.086 277.563 316.415 277.986 317.705 278.41C318.732 278.744 319.733 279.084 320.721 279.424C321.71 279.764 322.679 280.104 323.629 280.444C324.238 280.663 324.842 280.894 325.445 281.112C326.311 281.433 327.165 281.754 327.999 282.075C328.256 282.171 328.507 282.274 328.757 282.37C328.917 282.44 329.071 282.498 329.225 282.562C329.527 282.684 329.835 282.8 330.13 282.922C330.432 283.037 330.727 283.159 331.022 283.288C331.311 283.403 331.607 283.525 331.889 283.647C332.178 283.763 332.46 283.884 332.743 284.013C332.98 284.109 333.211 284.212 333.436 284.314C333.891 284.513 334.347 284.712 334.79 284.918C335.008 285.02 335.226 285.117 335.445 285.219L335.945 285.45C336.016 285.489 336.086 285.521 336.157 285.553C336.318 285.63 336.484 285.714 336.645 285.791C337.017 285.964 337.383 286.15 337.742 286.323C338.224 286.567 338.692 286.811 339.142 287.049C339.597 287.292 340.04 287.536 340.464 287.774C340.534 287.812 340.598 287.851 340.669 287.889C340.765 287.941 340.862 287.998 340.958 288.05C341.285 288.236 341.6 288.428 341.914 288.614C342.53 288.993 343.114 289.365 343.66 289.738C343.782 289.821 343.897 289.904 344.019 289.981C344.424 290.27 344.809 290.553 345.168 290.841C345.168 290.848 345.168 290.848 345.175 290.848C345.297 290.938 345.412 291.034 345.528 291.124C345.624 291.214 345.727 291.291 345.823 291.381C346.157 291.669 346.465 291.945 346.747 292.228C346.842 292.315 346.932 292.407 347.017 292.504C347.054 292.535 347.088 292.569 347.119 292.606C347.248 292.735 347.363 292.863 347.472 292.991C347.489 293.009 347.504 293.029 347.517 293.049C347.671 293.229 347.813 293.409 347.947 293.588C348.012 293.678 348.082 293.768 348.14 293.858C348.217 293.967 348.294 294.083 348.358 294.192C348.416 294.282 348.467 294.378 348.519 294.468C348.655 294.699 348.771 294.942 348.865 295.193C348.937 295.363 348.995 295.539 349.038 295.719C349.087 295.89 349.124 296.063 349.148 296.239V296.239Z" fill="#2F2E41"/>
<path opacity="0.2" d="M349.147 296.239C349.141 297.362 349.128 298.935 349.077 300.879C349.07 301.149 349.057 301.425 349.051 301.707C348.987 304.435 348.891 307.804 348.756 311.61C348.749 311.841 348.743 312.066 348.73 312.297C348.55 316.944 348.268 322.354 347.78 330.922C346.875 346.749 345.296 333.098 343.711 338.649C339.308 335.941 334.482 333.104 329.321 330.19C328.391 329.664 327.451 329.136 326.504 328.605C316.183 322.848 304.656 316.815 292.622 310.84C292.147 310.603 291.666 310.365 291.191 310.134C263.624 296.509 233.536 283.256 209.159 274.412C204.454 272.705 199.962 271.164 195.738 269.81C186.843 266.967 179.154 264.977 173.236 264.117C167.075 263.219 162.819 263.54 161.099 265.395C161.035 264.085 160.969 262.832 160.9 261.634C160.875 261.236 160.849 260.844 160.823 260.459C160.863 260.353 160.914 260.253 160.964 260.151C160.971 260.136 160.976 260.121 160.984 260.106C160.996 260.073 161.011 260.041 161.029 260.01C161.048 259.97 161.069 259.931 161.093 259.894C161.114 259.849 161.14 259.806 161.17 259.766C161.228 259.676 161.292 259.58 161.362 259.49C161.414 259.423 161.47 259.358 161.529 259.297C161.549 259.267 161.573 259.239 161.6 259.214C161.626 259.188 161.651 259.156 161.683 259.124C161.697 259.104 161.714 259.087 161.735 259.073C161.785 259.015 161.841 258.961 161.902 258.912C162.131 258.702 162.375 258.509 162.633 258.335C162.723 258.277 162.819 258.219 162.909 258.155C163.556 257.768 164.237 257.442 164.944 257.18C165.188 257.09 165.432 257.006 165.695 256.916C165.791 256.891 165.881 256.859 165.977 256.827C166.118 256.782 166.259 256.737 166.407 256.705C167.139 256.486 167.928 256.3 168.782 256.127C169.039 256.076 169.308 256.024 169.578 255.979C169.796 255.941 170.021 255.902 170.245 255.864C172.151 255.562 174.314 255.338 176.702 255.19C176.927 255.177 177.151 255.164 177.376 255.151C177.639 255.139 177.902 255.126 178.172 255.113C178.396 255.1 178.627 255.094 178.859 255.087C179.083 255.074 179.314 255.068 179.552 255.062C180.2 255.042 180.867 255.023 181.548 255.01C183.486 254.978 185.527 254.991 187.671 255.036C188.666 255.055 189.68 255.087 190.719 255.132C190.784 255.132 190.854 255.139 190.918 255.139C191.823 255.164 192.741 255.209 193.672 255.254C194.326 255.286 194.988 255.318 195.649 255.357C196.271 255.395 196.9 255.434 197.536 255.479C198.03 255.504 198.524 255.543 199.025 255.575C199.448 255.607 199.872 255.639 200.295 255.665C200.802 255.703 201.309 255.742 201.823 255.78C202.529 255.838 203.235 255.896 203.954 255.954C204.666 256.018 205.391 256.082 206.117 256.146C206.842 256.21 207.574 256.281 208.305 256.352C208.382 256.358 208.453 256.364 208.524 256.371C209.191 256.441 209.859 256.506 210.533 256.576C214.268 256.955 218.112 257.398 222.066 257.905C224.428 258.206 226.82 258.529 229.242 258.874C232.919 259.394 236.655 259.958 240.416 260.562C244.183 261.171 247.972 261.815 251.783 262.494C252.745 262.667 253.708 262.84 254.677 263.02C255.858 263.238 257.039 263.461 258.22 263.687C258.965 263.829 259.709 263.97 260.454 264.117C261.339 264.291 262.231 264.464 263.117 264.637C268.951 265.792 274.753 267.025 280.414 268.315C281.345 268.526 282.276 268.745 283.2 268.956C285.048 269.386 286.88 269.823 288.694 270.266C289.194 270.388 289.689 270.51 290.183 270.632C291.422 270.94 292.647 271.248 293.86 271.556V271.562C293.931 271.575 294.002 271.594 294.072 271.614C294.958 271.838 295.837 272.063 296.71 272.294C298.77 272.833 300.796 273.376 302.788 273.924C304.11 274.296 305.42 274.662 306.71 275.034C308.642 275.599 310.535 276.164 312.377 276.729C312.833 276.87 313.289 277.011 313.738 277.146C315.086 277.569 316.408 277.991 317.704 278.41C318.731 278.744 319.732 279.084 320.721 279.424C321.709 279.764 322.678 280.104 323.628 280.445C324.244 280.663 324.848 280.887 325.445 281.106C326.318 281.427 327.165 281.747 327.999 282.075C328.256 282.171 328.506 282.274 328.756 282.37C329.225 282.55 329.681 282.736 330.13 282.922C330.432 283.037 330.727 283.159 331.022 283.288C331.311 283.403 331.606 283.525 331.889 283.647C332.177 283.763 332.46 283.885 332.742 284.013C332.98 284.109 333.211 284.212 333.435 284.315C333.891 284.514 334.347 284.713 334.79 284.918C335.008 285.021 335.226 285.117 335.444 285.22L335.945 285.451C336.016 285.489 336.086 285.521 336.157 285.553C336.702 285.81 337.229 286.067 337.742 286.323C338.223 286.567 338.692 286.811 339.141 287.049C339.674 287.331 340.181 287.607 340.669 287.889C340.765 287.941 340.861 287.999 340.958 288.05C341.285 288.236 341.599 288.429 341.914 288.615C342.53 288.993 343.114 289.366 343.66 289.738C344.199 290.11 344.699 290.476 345.168 290.842C345.168 290.848 345.168 290.848 345.174 290.848C345.399 291.028 345.617 291.208 345.823 291.381C346.156 291.67 346.464 291.946 346.747 292.228C346.841 292.315 346.931 292.407 347.016 292.504C347.054 292.535 347.088 292.569 347.119 292.607C347.254 292.754 347.389 292.902 347.517 293.049C347.671 293.229 347.812 293.409 347.947 293.589C348.011 293.678 348.082 293.768 348.14 293.858C348.217 293.967 348.294 294.083 348.358 294.192C348.416 294.282 348.467 294.378 348.518 294.468C348.655 294.699 348.77 294.942 348.865 295.193C348.935 295.364 348.993 295.54 349.038 295.719C349.087 295.89 349.123 296.064 349.147 296.239V296.239Z" fill="black"/>
</g>
<defs>
<clipPath id="clip0_1825_68">
<rect width="505" height="367.273" fill="white" transform="translate(0 0.0908203)"/>
</clipPath>
</defs>
</svg>
