<svg width="110" height="36" viewBox="0 0 110 36" fill="none" xmlns="http://www.w3.org/2000/svg">
<path d="M1.89631 29V7.18182H10.5043C12.152 7.18182 13.5582 7.47656 14.723 8.06605C15.8949 8.64844 16.7862 9.47585 17.397 10.5483C18.0149 11.6136 18.3239 12.8672 18.3239 14.3089C18.3239 15.7578 18.0114 17.0043 17.3864 18.0483C16.7614 19.0852 15.8558 19.8807 14.6697 20.4347C13.4908 20.9886 12.0632 21.2656 10.3871 21.2656H4.62358V17.5582H9.64134C10.522 17.5582 11.2536 17.4375 11.8359 17.196C12.4183 16.9545 12.8516 16.5923 13.1357 16.1094C13.4268 15.6264 13.5724 15.0263 13.5724 14.3089C13.5724 13.5845 13.4268 12.9737 13.1357 12.4766C12.8516 11.9794 12.4148 11.603 11.8253 11.3473C11.2429 11.0845 10.5078 10.9531 9.62003 10.9531H6.50923V29H1.89631ZM13.679 19.071L19.1016 29H14.0092L8.70384 19.071H13.679ZM21.5838 29V7.18182H26.1967V16.8018H26.4844L34.3359 7.18182H39.8651L31.7685 16.951L39.9609 29H34.4425L28.4659 20.0298L26.1967 22.7997V29H21.5838Z" fill="black"/>
<path d="M51.9588 15V6.27273H57.3707V7.40625H53.2756V10.0653H56.983V11.1946H53.2756V15H51.9588ZM58.8058 15V8.45455H60.0373V9.49432H60.1055C60.2248 9.14205 60.435 8.86506 60.7362 8.66335C61.0401 8.45881 61.3839 8.35653 61.7674 8.35653C61.8469 8.35653 61.9407 8.35937 62.0487 8.36506C62.1594 8.37074 62.2461 8.37784 62.3086 8.38636V9.60511C62.2575 9.59091 62.1665 9.57528 62.0359 9.55824C61.9052 9.53835 61.7745 9.52841 61.6438 9.52841C61.3427 9.52841 61.0742 9.59233 60.8384 9.72017C60.6055 9.84517 60.4208 10.0199 60.2844 10.2443C60.1481 10.4659 60.0799 10.7187 60.0799 11.0028V15H58.8058ZM65.9339 15.1321C65.3203 15.1321 64.7848 14.9915 64.3274 14.7102C63.87 14.429 63.5149 14.0355 63.2621 13.5298C63.0092 13.0241 62.8828 12.4332 62.8828 11.7571C62.8828 11.0781 63.0092 10.4844 63.2621 9.97585C63.5149 9.46733 63.87 9.07244 64.3274 8.79119C64.7848 8.50994 65.3203 8.36932 65.9339 8.36932C66.5476 8.36932 67.0831 8.50994 67.5405 8.79119C67.9979 9.07244 68.353 9.46733 68.6058 9.97585C68.8587 10.4844 68.9851 11.0781 68.9851 11.7571C68.9851 12.4332 68.8587 13.0241 68.6058 13.5298C68.353 14.0355 67.9979 14.429 67.5405 14.7102C67.0831 14.9915 66.5476 15.1321 65.9339 15.1321ZM65.9382 14.0625C66.3359 14.0625 66.6655 13.9574 66.9268 13.7472C67.1882 13.5369 67.3814 13.2571 67.5064 12.9077C67.6342 12.5582 67.6982 12.1733 67.6982 11.7528C67.6982 11.3352 67.6342 10.9517 67.5064 10.6023C67.3814 10.25 67.1882 9.96733 66.9268 9.75426C66.6655 9.54119 66.3359 9.43466 65.9382 9.43466C65.5376 9.43466 65.2053 9.54119 64.9411 9.75426C64.6797 9.96733 64.4851 10.25 64.3572 10.6023C64.2322 10.9517 64.1697 11.3352 64.1697 11.7528C64.1697 12.1733 64.2322 12.5582 64.3572 12.9077C64.4851 13.2571 64.6797 13.5369 64.9411 13.7472C65.2053 13.9574 65.5376 14.0625 65.9382 14.0625ZM71.6815 11.1136V15H70.4073V8.45455H71.6303V9.51989H71.7113C71.8619 9.1733 72.0977 8.89489 72.4187 8.68466C72.7425 8.47443 73.1502 8.36932 73.6417 8.36932C74.0877 8.36932 74.4783 8.46307 74.8136 8.65057C75.1488 8.83523 75.4087 9.1108 75.5934 9.47727C75.7781 9.84375 75.8704 10.2969 75.8704 10.8366V15H74.5962V10.9901C74.5962 10.5156 74.4727 10.1449 74.2255 9.87784C73.9783 9.60795 73.6388 9.47301 73.207 9.47301C72.9116 9.47301 72.6488 9.53693 72.4187 9.66477C72.1914 9.79261 72.011 9.98011 71.8775 10.2273C71.7468 10.4716 71.6815 10.767 71.6815 11.1136ZM80.6346 8.45455V9.47727H77.0593V8.45455H80.6346ZM78.0181 6.88636H79.2923V13.0781C79.2923 13.3253 79.3292 13.5114 79.4031 13.6364C79.4769 13.7585 79.5721 13.8423 79.6886 13.8878C79.8079 13.9304 79.9371 13.9517 80.0763 13.9517C80.1786 13.9517 80.2681 13.9446 80.3448 13.9304C80.4215 13.9162 80.4812 13.9048 80.5238 13.8963L80.7539 14.9489C80.68 14.9773 80.5749 15.0057 80.4386 15.0341C80.3022 15.0653 80.1317 15.0824 79.9272 15.0852C79.592 15.0909 79.2795 15.0312 78.9897 14.9062C78.6999 14.7812 78.4656 14.5881 78.2866 14.3267C78.1076 14.0653 78.0181 13.7372 78.0181 13.3423V6.88636ZM85.6779 10.7599V11.8636H81.8086V10.7599H85.6779ZM90.1971 15.1321C89.5522 15.1321 88.9968 14.9943 88.5309 14.7188C88.0678 14.4403 87.7099 14.0497 87.457 13.5469C87.207 13.0412 87.082 12.4489 87.082 11.7699C87.082 11.0994 87.207 10.5085 87.457 9.99716C87.7099 9.4858 88.0621 9.08665 88.5138 8.79972C88.9684 8.51278 89.4996 8.36932 90.1076 8.36932C90.4769 8.36932 90.8349 8.4304 91.1815 8.55256C91.5281 8.67472 91.8391 8.86648 92.1147 9.12784C92.3903 9.3892 92.6076 9.72869 92.7667 10.1463C92.9258 10.5611 93.0053 11.0653 93.0053 11.6591V12.1108H87.8022V11.1562H91.7567C91.7567 10.821 91.6886 10.5241 91.5522 10.2656C91.4158 10.0043 91.2241 9.7983 90.9769 9.64773C90.7326 9.49716 90.4457 9.42188 90.1161 9.42188C89.7582 9.42188 89.4457 9.50994 89.1786 9.68608C88.9144 9.85937 88.7099 10.0866 88.565 10.3679C88.4229 10.6463 88.3519 10.9489 88.3519 11.2756V12.0213C88.3519 12.4588 88.4286 12.831 88.582 13.1378C88.7383 13.4446 88.9556 13.679 89.234 13.8409C89.5124 14 89.8377 14.0795 90.2099 14.0795C90.4513 14.0795 90.6715 14.0455 90.8704 13.9773C91.0692 13.9062 91.2411 13.8011 91.386 13.6619C91.5309 13.5227 91.6417 13.3509 91.7184 13.1463L92.9244 13.3636C92.8278 13.7187 92.6545 14.0298 92.4045 14.2969C92.1573 14.5611 91.8462 14.767 91.4712 14.9148C91.0991 15.0597 90.6744 15.1321 90.1971 15.1321ZM95.6932 11.1136V15H94.419V8.45455H95.642V9.51989H95.723C95.8736 9.1733 96.1094 8.89489 96.4304 8.68466C96.7543 8.47443 97.1619 8.36932 97.6534 8.36932C98.0994 8.36932 98.4901 8.46307 98.8253 8.65057C99.1605 8.83523 99.4205 9.1108 99.6051 9.47727C99.7898 9.84375 99.8821 10.2969 99.8821 10.8366V15H98.608V10.9901C98.608 10.5156 98.4844 10.1449 98.2372 9.87784C97.9901 9.60795 97.6506 9.47301 97.2188 9.47301C96.9233 9.47301 96.6605 9.53693 96.4304 9.66477C96.2031 9.79261 96.0227 9.98011 95.8892 10.2273C95.7585 10.4716 95.6932 10.767 95.6932 11.1136ZM104.041 15.1278C103.513 15.1278 103.041 14.9929 102.626 14.723C102.214 14.4503 101.891 14.0625 101.655 13.5597C101.422 13.054 101.305 12.4474 101.305 11.7401C101.305 11.0327 101.423 10.4276 101.659 9.92472C101.898 9.42187 102.224 9.03693 102.639 8.76989C103.054 8.50284 103.524 8.36932 104.05 8.36932C104.456 8.36932 104.783 8.4375 105.03 8.57386C105.28 8.70739 105.473 8.86364 105.609 9.04261C105.749 9.22159 105.857 9.37926 105.933 9.51562H106.01V6.27273H107.284V15H106.04V13.9815H105.933C105.857 14.1207 105.746 14.2798 105.601 14.4588C105.459 14.6378 105.263 14.794 105.013 14.9276C104.763 15.0611 104.439 15.1278 104.041 15.1278ZM104.322 14.0412C104.689 14.0412 104.999 13.9446 105.251 13.7514C105.507 13.5554 105.7 13.2841 105.831 12.9375C105.964 12.5909 106.031 12.1875 106.031 11.7273C106.031 11.2727 105.966 10.875 105.835 10.5341C105.705 10.1932 105.513 9.92756 105.26 9.73722C105.007 9.54687 104.695 9.4517 104.322 9.4517C103.939 9.4517 103.619 9.55114 103.364 9.75C103.108 9.94886 102.915 10.2202 102.784 10.5639C102.656 10.9077 102.592 11.2955 102.592 11.7273C102.592 12.1648 102.658 12.5582 102.788 12.9077C102.919 13.2571 103.112 13.5341 103.368 13.7386C103.626 13.9403 103.945 14.0412 104.322 14.0412ZM54.7841 30H51.9588V21.2727H54.8736C55.7287 21.2727 56.4631 21.4474 57.0767 21.7969C57.6903 22.1435 58.1605 22.642 58.4872 23.2926C58.8168 23.9403 58.9815 24.7173 58.9815 25.6236C58.9815 26.5327 58.8153 27.3139 58.483 27.9673C58.1534 28.6207 57.6761 29.1236 57.0511 29.4759C56.4261 29.8253 55.6705 30 54.7841 30ZM53.2756 28.8494H54.7116C55.3764 28.8494 55.929 28.7244 56.3693 28.4744C56.8097 28.2216 57.1392 27.8565 57.358 27.3793C57.5767 26.8991 57.6861 26.3139 57.6861 25.6236C57.6861 24.9389 57.5767 24.358 57.358 23.8807C57.142 23.4034 56.8196 23.0412 56.3906 22.794C55.9616 22.5469 55.429 22.4233 54.7926 22.4233H53.2756V28.8494ZM63.3377 30.1321C62.6928 30.1321 62.1374 29.9943 61.6715 29.7188C61.2085 29.4403 60.8505 29.0497 60.5977 28.5469C60.3477 28.0412 60.2227 27.4489 60.2227 26.7699C60.2227 26.0994 60.3477 25.5085 60.5977 24.9972C60.8505 24.4858 61.2028 24.0866 61.6545 23.7997C62.109 23.5128 62.6403 23.3693 63.2482 23.3693C63.6175 23.3693 63.9755 23.4304 64.3221 23.5526C64.6687 23.6747 64.9798 23.8665 65.2553 24.1278C65.5309 24.3892 65.7482 24.7287 65.9073 25.1463C66.0664 25.5611 66.146 26.0653 66.146 26.6591V27.1108H60.9428V26.1562H64.8974C64.8974 25.821 64.8292 25.5241 64.6928 25.2656C64.5565 25.0043 64.3647 24.7983 64.1175 24.6477C63.8732 24.4972 63.5863 24.4219 63.2567 24.4219C62.8988 24.4219 62.5863 24.5099 62.3192 24.6861C62.055 24.8594 61.8505 25.0866 61.7056 25.3679C61.5636 25.6463 61.4925 25.9489 61.4925 26.2756V27.0213C61.4925 27.4588 61.5692 27.831 61.7227 28.1378C61.8789 28.4446 62.0962 28.679 62.3746 28.8409C62.6531 29 62.9783 29.0795 63.3505 29.0795C63.592 29.0795 63.8121 29.0455 64.011 28.9773C64.2099 28.9062 64.3817 28.8011 64.5266 28.6619C64.6715 28.5227 64.7823 28.3509 64.859 28.1463L66.065 28.3636C65.9684 28.7187 65.7951 29.0298 65.5451 29.2969C65.2979 29.5611 64.9869 29.767 64.6119 29.9148C64.2397 30.0597 63.815 30.1321 63.3377 30.1321ZM72.9716 23.4545L70.598 30H69.2344L66.8565 23.4545H68.2244L69.8821 28.4915H69.9503L71.6037 23.4545H72.9716ZM76.7674 30.1321C76.1225 30.1321 75.5671 29.9943 75.1012 29.7188C74.6381 29.4403 74.2802 29.0497 74.0273 28.5469C73.7773 28.0412 73.6523 27.4489 73.6523 26.7699C73.6523 26.0994 73.7773 25.5085 74.0273 24.9972C74.2802 24.4858 74.6325 24.0866 75.0842 23.7997C75.5387 23.5128 76.07 23.3693 76.6779 23.3693C77.0472 23.3693 77.4052 23.4304 77.7518 23.5526C78.0984 23.6747 78.4094 23.8665 78.685 24.1278C78.9606 24.3892 79.1779 24.7287 79.337 25.1463C79.4961 25.5611 79.5756 26.0653 79.5756 26.6591V27.1108H74.3725V26.1562H78.3271C78.3271 25.821 78.2589 25.5241 78.1225 25.2656C77.9862 25.0043 77.7944 24.7983 77.5472 24.6477C77.3029 24.4972 77.016 24.4219 76.6864 24.4219C76.3285 24.4219 76.016 24.5099 75.7489 24.6861C75.4847 24.8594 75.2802 25.0866 75.1353 25.3679C74.9933 25.6463 74.9222 25.9489 74.9222 26.2756V27.0213C74.9222 27.4588 74.9989 27.831 75.1523 28.1378C75.3086 28.4446 75.5259 28.679 75.8043 28.8409C76.0827 29 76.408 29.0795 76.7802 29.0795C77.0217 29.0795 77.2418 29.0455 77.4407 28.9773C77.6396 28.9062 77.8114 28.8011 77.9563 28.6619C78.1012 28.5227 78.212 28.3509 78.2887 28.1463L79.4947 28.3636C79.3981 28.7187 79.2248 29.0298 78.9748 29.2969C78.7276 29.5611 78.4165 29.767 78.0415 29.9148C77.6694 30.0597 77.2447 30.1321 76.7674 30.1321ZM82.2635 21.2727V30H80.9893V21.2727H82.2635ZM86.7347 30.1321C86.1211 30.1321 85.5856 29.9915 85.1282 29.7102C84.6708 29.429 84.3157 29.0355 84.0629 28.5298C83.81 28.0241 83.6836 27.4332 83.6836 26.7571C83.6836 26.0781 83.81 25.4844 84.0629 24.9759C84.3157 24.4673 84.6708 24.0724 85.1282 23.7912C85.5856 23.5099 86.1211 23.3693 86.7347 23.3693C87.3484 23.3693 87.8839 23.5099 88.3413 23.7912C88.7987 24.0724 89.1538 24.4673 89.4066 24.9759C89.6594 25.4844 89.7859 26.0781 89.7859 26.7571C89.7859 27.4332 89.6594 28.0241 89.4066 28.5298C89.1538 29.0355 88.7987 29.429 88.3413 29.7102C87.8839 29.9915 87.3484 30.1321 86.7347 30.1321ZM86.739 29.0625C87.1367 29.0625 87.4663 28.9574 87.7276 28.7472C87.989 28.5369 88.1822 28.2571 88.3072 27.9077C88.435 27.5582 88.4989 27.1733 88.4989 26.7528C88.4989 26.3352 88.435 25.9517 88.3072 25.6023C88.1822 25.25 87.989 24.9673 87.7276 24.7543C87.4663 24.5412 87.1367 24.4347 86.739 24.4347C86.3384 24.4347 86.006 24.5412 85.7418 24.7543C85.4805 24.9673 85.2859 25.25 85.158 25.6023C85.033 25.9517 84.9705 26.3352 84.9705 26.7528C84.9705 27.1733 85.033 27.5582 85.158 27.9077C85.2859 28.2571 85.4805 28.5369 85.7418 28.7472C86.006 28.9574 86.3384 29.0625 86.739 29.0625ZM91.2081 32.4545V23.4545H92.4524V24.5156H92.5589C92.6328 24.3793 92.7393 24.2216 92.8786 24.0426C93.0178 23.8636 93.2109 23.7074 93.4581 23.5739C93.7053 23.4375 94.032 23.3693 94.4382 23.3693C94.9666 23.3693 95.4382 23.5028 95.853 23.7699C96.2678 24.0369 96.593 24.4219 96.8288 24.9247C97.0675 25.4276 97.1868 26.0327 97.1868 26.7401C97.1868 27.4474 97.0689 28.054 96.8331 28.5597C96.5973 29.0625 96.2734 29.4503 95.8615 29.723C95.4496 29.9929 94.9794 30.1278 94.451 30.1278C94.0533 30.1278 93.728 30.0611 93.4751 29.9276C93.2251 29.794 93.0291 29.6378 92.8871 29.4588C92.745 29.2798 92.6357 29.1207 92.5589 28.9815H92.4822V32.4545H91.2081ZM92.4567 26.7273C92.4567 27.1875 92.5234 27.5909 92.657 27.9375C92.7905 28.2841 92.9837 28.5554 93.2365 28.7514C93.4893 28.9446 93.799 29.0412 94.1655 29.0412C94.5462 29.0412 94.8643 28.9403 95.12 28.7386C95.3757 28.5341 95.5689 28.2571 95.6996 27.9077C95.8331 27.5582 95.8999 27.1648 95.8999 26.7273C95.8999 26.2955 95.8345 25.9077 95.7038 25.5639C95.576 25.2202 95.3828 24.9489 95.1243 24.75C94.8686 24.5511 94.549 24.4517 94.1655 24.4517C93.7962 24.4517 93.4837 24.5469 93.228 24.7372C92.9751 24.9276 92.7834 25.1932 92.6527 25.5341C92.522 25.875 92.4567 26.2727 92.4567 26.7273ZM101.435 30.1321C100.79 30.1321 100.235 29.9943 99.7692 29.7188C99.3061 29.4403 98.9482 29.0497 98.6953 28.5469C98.4453 28.0412 98.3203 27.4489 98.3203 26.7699C98.3203 26.0994 98.4453 25.5085 98.6953 24.9972C98.9482 24.4858 99.3004 24.0866 99.7521 23.7997C100.207 23.5128 100.738 23.3693 101.346 23.3693C101.715 23.3693 102.073 23.4304 102.42 23.5526C102.766 23.6747 103.077 23.8665 103.353 24.1278C103.629 24.3892 103.846 24.7287 104.005 25.1463C104.164 25.5611 104.244 26.0653 104.244 26.6591V27.1108H99.0405V26.1562H102.995C102.995 25.821 102.927 25.5241 102.79 25.2656C102.654 25.0043 102.462 24.7983 102.215 24.6477C101.971 24.4972 101.684 24.4219 101.354 24.4219C100.996 24.4219 100.684 24.5099 100.417 24.6861C100.153 24.8594 99.9482 25.0866 99.8033 25.3679C99.6612 25.6463 99.5902 25.9489 99.5902 26.2756V27.0213C99.5902 27.4588 99.6669 27.831 99.8203 28.1378C99.9766 28.4446 100.194 28.679 100.472 28.8409C100.751 29 101.076 29.0795 101.448 29.0795C101.69 29.0795 101.91 29.0455 102.109 28.9773C102.308 28.9062 102.479 28.8011 102.624 28.6619C102.769 28.5227 102.88 28.3509 102.957 28.1463L104.163 28.3636C104.066 28.7187 103.893 29.0298 103.643 29.2969C103.396 29.5611 103.085 29.767 102.71 29.9148C102.337 30.0597 101.913 30.1321 101.435 30.1321ZM105.657 30V23.4545H106.889V24.4943H106.957C107.076 24.142 107.287 23.8651 107.588 23.6634C107.892 23.4588 108.235 23.3565 108.619 23.3565C108.699 23.3565 108.792 23.3594 108.9 23.3651C109.011 23.3707 109.098 23.3778 109.16 23.3864V24.6051C109.109 24.5909 109.018 24.5753 108.887 24.5582C108.757 24.5384 108.626 24.5284 108.495 24.5284C108.194 24.5284 107.926 24.5923 107.69 24.7202C107.457 24.8452 107.272 25.0199 107.136 25.2443C107 25.4659 106.931 25.7187 106.931 26.0028V30H105.657Z" fill="#939395"/>
</svg>
